<svg version="1.2" xmlns="http://www.w3.org/2000/svg" viewBox="0 0 512 512" width="128" height="128">
	<title>Logo Abaltzisketa</title>
	<style>
		.s0 { fill: #FFFFFF } 
	</style>
	<path id="Forma 9" class="s0" d="m38.7 443.9l-18.2-8.2 133.4-296.6 18.3 8.2z"/>
	<path id="Forma 10" class="s0" d="m142.4 162.6l19-6.4 49.3 146.7-18.9 6.4z"/>
	<path id="Forma 11" class="s0" d="m209.3 303.2l-18.3-7.9 117.9-271.2 18.4 8z"/>
	<path id="Forma 12" class="s0" d="m298.2 53.1l19.1-5.9 126.7 413.8-19.1 5.9z"/>
	<path id="Forma 13" class="s0" d="m112.3 391.5l15.1-13.1 60.2 69.7-15.1 13.1z"/>
	<path id="Forma 14" class="s0" d="m185.8 450.5l-18-8.6 126.8-265.7 18 8.6z"/>
	<path id="Forma 15" class="s0" d="m285.6 208.4l18.9-6.5 90.1 262.4-19 6.5z"/>
	<path id="Forma 16" class="s0" d="m20.9 375.4l-0.1-20 465.1-1.7v20z"/>
</svg>